# xmcd
#
# Track frame offsets:
#	150
#	14368
#	30552
#	46435
#	58870
#	76007
#	89839
#	101484
#	119863
#	135030
#	147802
#	164387
#	176879
#	187453
#	202953
#	217323
#
# Disc length: 3071 seconds
#
# Revision: 0
# Processed by: cddbd v1.5.2PL0 Copyright (c) Steve Scherf et al.
# Submitted via: audiograbber 1.83.01
#
DISCID=ef0bfd10
DTITLE=Various Artist - Honky Tonk And Hillbilly Heaven  CD2
DYEAR=2009
DGENRE=Country
TTITLE0=John Denver - Thank God I'm A Country Boy
TTITLE1=Charlie Daniels - Devil Went To Georgia
TTITLE2=Emerson Drive - Testify
TTITLE3=Catherine Britt - Hillbilly Pickin' Ramblin' Girl
TTITLE4=Sara Evans - Suds In The Bucket
TTITLE5=The McClymonts - Baby's Gone Home
TTITLE6=Kirsty Lee Akers - Little Things
TTITLE7=Kasey Chambers - Pony
TTITLE8=Felicity Urquhart - Mr Catfish
TTITLE9=Andrew Morris - Everybody Knows
TTITLE10=The Sunny Cowgirls - Cuttin' Up B&S Style
TTITLE11=Mindy McCready - All I Want Is Everything
TTITLE12=Melinda Schneider - Men In Trucks
TTITLE13=Josh Turner - Firecracker
TTITLE14=Vince Gill - One More Last Chance
TTITLE15=Tom Curtain - Hillbilly Music
EXTD=
EXTT0=
EXTT1=
EXTT2=
EXTT3=
EXTT4=
EXTT5=
EXTT6=
EXTT7=
EXTT8=
EXTT9=
EXTT10=
EXTT11=
EXTT12=
EXTT13=
EXTT14=
EXTT15=
PLAYORDER=
